<?xml version="1.0" standalone="no"?>
<!DOCTYPE svg PUBLIC "-//W3C//DTD SVG 20010904//EN"
 "http://www.w3.org/TR/2001/REC-SVG-20010904/DTD/svg10.dtd">
<svg version="1.0" xmlns="http://www.w3.org/2000/svg"
 width="909.000000pt" height="909.000000pt" viewBox="0 0 909.000000 909.000000"
 preserveAspectRatio="xMidYMid meet">
<metadata>
Created by potrace 1.14, written by Peter Selinger 2001-2017
</metadata>
<g transform="translate(0.000000,909.000000) scale(0.100000,-0.100000)"
fill="#000000" stroke="none">
<path d="M4299 9085 c-2 -1 -49 -6 -104 -9 -55 -3 -111 -8 -125 -10 -14 -3
-52 -7 -85 -11 -33 -3 -85 -10 -115 -15 -30 -5 -68 -11 -85 -13 -16 -3 -41 -8
-55 -11 -14 -3 -36 -8 -50 -10 -223 -38 -578 -142 -822 -241 -139 -57 -151
-62 -317 -143 -119 -57 -164 -81 -286 -152 -114 -65 -348 -220 -416 -274 -15
-12 -39 -30 -53 -40 -15 -11 -36 -27 -46 -35 -10 -9 -47 -38 -82 -66 -34 -27
-70 -57 -78 -65 -9 -8 -56 -51 -105 -95 -78 -71 -170 -162 -291 -291 -53 -55
-166 -191 -245 -294 -357 -463 -626 -1009 -782 -1585 -36 -134 -81 -336 -92
-415 -3 -25 -10 -70 -15 -100 -5 -30 -12 -77 -15 -105 -3 -27 -8 -63 -10 -80
-28 -214 -27 -735 1 -965 3 -29 18 -136 39 -287 2 -12 6 -34 9 -50 4 -15 9
-39 11 -53 3 -14 12 -56 21 -95 8 -38 18 -81 21 -95 42 -196 154 -529 261
-770 101 -231 301 -592 404 -730 11 -14 60 -81 110 -150 50 -69 94 -127 97
-130 3 -3 26 -30 51 -60 88 -108 205 -234 324 -349 120 -117 122 -118 196
-181 36 -30 74 -63 85 -73 45 -41 257 -198 355 -264 505 -337 1106 -586 1665
-689 50 -9 99 -18 110 -20 11 -2 40 -7 65 -10 25 -3 52 -7 60 -9 8 -2 42 -7
75 -10 33 -4 67 -8 75 -10 98 -25 917 -25 960 0 3 1 41 6 85 10 44 4 82 8 85
10 3 2 25 6 50 9 55 7 90 13 155 26 28 6 59 12 70 14 500 99 1048 320 1496
603 100 63 262 173 294 200 6 5 26 20 45 33 19 13 40 29 46 35 6 5 25 21 44
35 18 14 40 32 49 40 9 8 32 28 51 44 101 83 269 245 415 400 163 171 392 481
545 736 63 105 209 386 244 470 11 25 29 68 41 95 12 28 35 84 50 125 15 41
35 95 45 120 79 203 179 608 215 875 34 248 40 352 39 655 0 245 -6 382 -19
460 -2 14 -7 53 -10 87 -3 34 -8 72 -10 85 -3 13 -7 37 -10 53 -3 17 -7 44
-10 60 -3 17 -8 46 -11 65 -3 19 -7 42 -9 50 -2 8 -7 31 -10 50 -3 19 -15 71
-26 115 -11 44 -22 88 -24 98 -22 100 -147 483 -185 562 -5 11 -21 49 -36 85
-62 154 -283 580 -306 588 -4 2 -8 8 -8 13 0 18 -197 303 -292 424 -56 71
-128 154 -206 241 -78 87 -258 268 -312 314 -14 12 -41 36 -60 53 -19 18 -64
56 -100 85 -87 72 -89 73 -135 107 -22 16 -42 33 -45 36 -6 7 -227 160 -252
174 -9 6 -70 42 -135 82 -426 259 -928 452 -1438 554 -113 23 -198 37 -260 44
-27 3 -57 8 -65 10 -8 2 -47 7 -85 10 -39 3 -90 9 -115 11 -52 6 -606 14 -611
9z"/>
</g>
</svg>
