<?xml version="1.0" standalone="no"?>
<!DOCTYPE svg PUBLIC "-//W3C//DTD SVG 20010904//EN"
 "http://www.w3.org/TR/2001/REC-SVG-20010904/DTD/svg10.dtd">
<svg version="1.0" xmlns="http://www.w3.org/2000/svg"
 width="800.000000pt" height="800.000000pt" viewBox="0 0 800.000000 800.000000"
 preserveAspectRatio="xMidYMid meet">
<metadata>
Created by potrace 1.14, written by Peter Selinger 2001-2017
</metadata>
<g transform="translate(0.000000,800.000000) scale(0.100000,-0.100000)"
fill="#000000" stroke="none">
<path d="M2499 7767 c-68 -45 -73 -121 -13 -178 25 -23 31 -24 167 -25 156 -1
223 9 236 34 5 9 12 36 16 60 6 37 3 47 -19 77 -35 45 -74 55 -227 55 -115 0
-129 -2 -160 -23z"/>
<path d="M2687 7450 c-14 -12 -42 -54 -61 -94 -19 -40 -41 -77 -48 -84 -9 -7
-75 -12 -194 -12 -190 -2 -207 -5 -243 -51 -54 -69 -45 -141 24 -209 l45 -44
171 -11 c194 -11 192 -11 243 -106 43 -80 63 -99 106 -99 52 0 100 36 130 96
14 28 36 65 49 83 l23 32 127 -2 c69 0 137 3 151 9 14 6 40 26 58 45 29 29 35
44 39 96 5 55 3 65 -22 100 -15 22 -41 44 -57 50 -17 6 -89 11 -159 11 -147 0
-138 -5 -215 111 -53 80 -59 85 -104 94 -28 5 -41 2 -63 -15z m53 -286 c0 -8
13 -29 29 -44 27 -28 28 -31 12 -48 -9 -10 -27 -26 -41 -35 -24 -17 -25 -16
-62 20 -21 20 -38 42 -38 48 0 5 16 20 35 33 19 12 35 27 35 32 0 6 7 10 15
10 8 0 15 -7 15 -16z"/>
<path d="M4560 7355 c-25 -8 -55 -23 -67 -35 -12 -11 -27 -20 -32 -20 -13 0
-87 -99 -83 -111 1 -5 -2 -9 -7 -9 -14 0 -31 -83 -31 -150 0 -49 7 -76 32
-129 31 -66 106 -151 133 -151 7 0 20 -6 28 -14 21 -22 135 -40 153 -25 8 6
23 9 34 6 41 -11 110 24 175 87 65 64 100 118 91 142 -3 7 -1 16 5 20 18 11 4
167 -20 216 -26 54 -102 133 -156 160 -52 27 -190 34 -255 13z m154 -219 c79
-33 90 -129 22 -189 -17 -15 -32 -18 -74 -15 -31 3 -58 11 -63 19 -5 8 -9 10
-9 4 -1 -32 -33 58 -33 93 -1 81 74 123 157 88z"/>
<path d="M3905 7106 c-38 -17 -89 -71 -157 -166 -141 -200 -184 -379 -142
-601 18 -97 72 -217 121 -265 18 -18 33 -37 33 -41 0 -5 14 -19 31 -33 18 -14
39 -32 48 -40 27 -25 148 -79 188 -84 21 -3 38 -5 38 -6 0 -15 196 -17 355 -3
168 14 267 9 350 -16 72 -22 187 -83 202 -106 3 -6 20 -26 37 -45 17 -19 31
-43 31 -52 0 -10 5 -18 11 -18 5 0 7 -4 4 -10 -3 -5 -1 -10 5 -10 6 0 9 -4 5
-9 -3 -5 1 -16 9 -24 8 -8 12 -17 9 -21 -4 -3 -1 -6 5 -6 6 0 9 -7 5 -17 -4
-10 -2 -14 4 -10 6 4 13 -5 16 -21 7 -38 -22 -50 -73 -28 -8 3 -784 5 -1725 4
l-1710 -3 -52 -27 c-104 -55 -182 -158 -208 -273 l-11 -49 -115 -1 -114 0 -58
-38 c-62 -40 -110 -104 -128 -171 -6 -24 -9 -140 -7 -305 3 -259 4 -267 28
-316 21 -44 82 -113 134 -154 12 -9 54 -16 112 -19 134 -7 214 20 303 103 100
93 128 181 75 230 -52 48 -106 31 -198 -64 -62 -62 -94 -77 -145 -66 -39 8
-101 68 -101 97 0 13 -3 109 -7 215 -5 165 -4 196 10 216 23 36 77 57 145 57
67 0 96 -16 126 -72 26 -46 133 -137 202 -170 46 -23 82 -30 174 -39 78 -7
796 -7 2220 -2 2348 8 2248 8 2273 18 9 4 24 5 32 1 8 -3 15 -1 15 5 0 6 5 7
10 4 12 -8 80 16 80 28 0 4 4 6 10 2 5 -3 18 3 30 15 11 11 22 20 25 20 4 0
52 50 120 124 19 21 32 44 28 50 -3 6 -3 8 1 4 4 -3 16 2 26 12 13 13 34 18
76 19 41 0 54 -3 44 -9 -12 -8 -10 -10 8 -10 31 0 77 -25 96 -52 13 -19 16
-57 16 -223 -1 -223 -4 -237 -64 -284 -70 -55 -158 -31 -263 71 -63 63 -109
73 -148 34 -33 -33 -32 -50 11 -134 38 -77 81 -121 166 -168 47 -26 62 -29
139 -28 64 0 101 6 147 23 34 13 62 27 62 32 0 5 6 9 13 9 17 0 87 76 87 96 0
9 9 28 20 43 33 48 40 108 36 352 -3 216 -4 238 -25 282 -12 26 -28 50 -36 54
-8 3 -13 9 -10 13 2 4 -4 15 -15 25 -11 10 -20 15 -20 11 0 -4 -12 5 -27 19
-29 26 -79 44 -123 43 -128 -2 -172 2 -166 18 3 9 2 12 -5 9 -6 -4 -7 3 -3 21
5 19 4 25 -5 20 -7 -5 -11 3 -11 24 0 17 -4 29 -9 26 -5 -4 -8 1 -7 11 3 22
-22 73 -40 80 -7 3 -16 14 -19 24 -8 24 -84 81 -96 73 -5 -3 -12 2 -15 10 -3
9 -20 18 -37 21 -18 3 -264 7 -548 8 -472 2 -517 3 -533 19 -9 10 -16 19 -15
20 5 7 -26 78 -34 78 -4 0 -5 5 -2 10 3 6 2 10 -2 10 -11 0 -36 60 -34 78 1 8
-6 26 -16 40 -9 15 -27 46 -39 68 -23 45 -25 48 -78 110 -45 52 -156 126 -221
149 -127 43 -316 57 -470 34 -94 -13 -287 -10 -352 7 -65 17 -150 70 -186 117
-79 104 -98 208 -73 397 4 25 57 132 85 170 14 19 54 67 87 106 34 39 65 81
69 94 12 37 -4 87 -36 114 -34 29 -69 32 -114 12z m2394 -1841 c7 4 18 2 25
-4 7 -6 22 -12 33 -14 21 -3 87 -63 89 -82 1 -5 3 -12 4 -15 1 -3 3 -16 5 -30
2 -14 4 -29 6 -35 5 -18 -21 -92 -44 -126 -26 -38 -82 -78 -145 -102 -39 -16
-218 -17 -2275 -17 -1550 0 -2244 3 -2272 11 -58 15 -130 67 -155 112 -54 95
-27 238 52 278 38 19 70 20 2341 25 1265 3 2303 7 2306 10 3 2 8 -1 12 -7 4
-6 12 -8 18 -4z"/>
<path d="M6233 7069 c-17 -5 -43 -23 -57 -40 -25 -29 -26 -35 -26 -159 0 -159
-5 -184 -46 -225 -32 -32 -34 -33 -121 -32 -117 0 -158 -22 -183 -99 -15 -44
0 -91 41 -130 29 -28 34 -29 127 -29 149 0 161 -13 178 -182 11 -123 22 -144
80 -169 43 -18 96 -2 127 38 23 28 25 41 26 141 2 110 14 159 43 169 7 3 58 6
112 7 152 3 196 31 196 124 0 44 -4 54 -39 88 l-39 39 -95 0 c-94 0 -95 0
-121 31 -45 53 -56 93 -56 203 0 130 -19 200 -60 221 -32 17 -41 17 -87 4z"/>
<path d="M2932 6689 c-20 -6 -40 -22 -52 -42 -33 -53 -24 -110 25 -166 31 -34
84 -40 125 -13 14 9 28 15 33 14 4 -1 7 4 7 12 0 8 5 16 11 18 19 6 23 92 5
126 -30 58 -76 73 -154 51z"/>
<path d="M5367 6492 c-41 -28 -56 -53 -57 -95 -1 -102 111 -162 186 -101 10 8
12 13 4 9 -8 -4 -6 0 4 9 30 24 33 103 7 146 -11 19 -21 31 -21 27 0 -5 -7 -1
-16 7 -21 21 -73 20 -107 -2z"/>
<path d="M1606 6401 c-4 -6 -11 -9 -16 -6 -4 3 -22 -11 -39 -30 -25 -29 -31
-45 -31 -81 0 -38 6 -51 33 -79 19 -19 37 -32 40 -28 4 3 7 1 7 -5 0 -7 16
-12 39 -12 32 0 47 7 78 38 34 32 40 44 41 85 2 41 -2 52 -30 83 -24 26 -44
37 -74 41 -26 3 -44 1 -48 -6z"/>
<path d="M6158 4335 c-120 -43 -117 -37 -50 -126 27 -35 73 -109 102 -164 29
-55 63 -118 76 -141 29 -49 115 -309 137 -414 34 -157 53 -395 38 -464 -6 -28
-12 -86 -13 -129 -1 -43 -5 -80 -8 -82 -3 -2 -7 -23 -9 -47 -1 -24 -6 -47 -12
-52 -5 -6 -9 -25 -9 -42 0 -18 -4 -36 -10 -39 -5 -3 -10 -19 -10 -35 0 -16 -4
-32 -10 -35 -5 -3 -10 -19 -10 -36 0 -16 -5 -29 -11 -29 -6 0 -9 -7 -5 -15 3
-8 2 -15 -3 -15 -9 0 -26 -48 -23 -62 1 -5 -3 -8 -9 -8 -5 0 -7 -5 -4 -11 4
-5 -1 -20 -12 -31 -12 -15 -13 -19 -3 -13 8 4 5 -2 -7 -14 -20 -19 -28 -40
-24 -63 0 -5 -4 -8 -10 -8 -5 0 -7 -4 -4 -10 3 -5 1 -10 -5 -10 -5 0 -18 -17
-28 -37 -9 -21 -20 -40 -23 -43 -7 -6 -33 -52 -34 -60 0 -3 -8 -14 -17 -25
-35 -41 -117 -155 -112 -155 3 0 -9 -12 -26 -26 -17 -15 -29 -29 -26 -31 7 -7
-121 -121 -209 -184 -44 -32 -85 -62 -90 -67 -6 -5 -47 -27 -91 -49 l-81 -40
-99 4 c-70 3 -111 0 -139 -10 -68 -24 -104 -102 -73 -160 25 -48 60 -58 205
-58 105 0 118 -5 180 -63 34 -32 148 -270 137 -287 -5 -9 -3509 -8 -3518 1
-17 17 89 254 150 338 20 27 51 28 161 7 103 -20 129 -19 153 5 11 11 20 17
20 14 0 -18 31 22 41 53 9 28 9 44 -2 76 -18 55 -72 80 -155 71 -98 -10 -176
19 -337 124 -134 87 -294 246 -381 378 -36 56 -66 106 -66 113 0 6 -3 11 -8
11 -4 0 -15 15 -24 33 -9 17 -27 55 -41 82 -21 44 -58 134 -88 215 -28 80 -80
321 -89 420 -14 158 -13 254 5 400 17 139 69 375 86 396 6 8 9 14 6 14 -11 0
61 190 103 272 40 79 92 168 152 261 36 54 34 58 -37 79 -22 7 -42 14 -45 18
-3 3 -9 6 -15 6 -5 1 -20 5 -31 8 -25 8 -44 -15 -128 -150 -214 -345 -320
-729 -320 -1159 0 -146 4 -189 28 -305 15 -74 39 -175 53 -224 33 -115 124
-344 161 -404 15 -26 31 -55 35 -64 3 -10 30 -52 59 -94 29 -42 59 -86 67 -98
84 -122 324 -350 428 -405 13 -6 23 -17 23 -23 0 -6 -33 -79 -74 -162 -86
-178 -120 -252 -131 -285 l-7 -24 -124 7 -124 8 -30 -30 c-47 -48 -36 -122 26
-171 l27 -21 2156 0 c1384 0 2169 4 2192 10 47 13 77 43 85 85 8 42 1 72 -25
105 -19 23 -25 25 -95 22 l-75 -2 -56 113 c-30 62 -55 118 -55 124 0 7 -13 41
-30 76 -16 36 -30 70 -30 76 0 6 -4 11 -9 11 -5 0 -14 14 -21 31 -12 29 -12
33 11 50 13 10 36 24 52 31 15 7 27 17 27 21 0 5 4 6 9 3 5 -3 19 4 33 17 13
12 37 31 53 41 47 31 125 107 125 123 0 8 4 12 8 9 5 -3 22 9 38 26 16 17 22
27 14 23 -10 -6 -8 -1 4 13 10 12 24 19 30 15 6 -3 8 -3 4 1 -3 4 5 21 19 36
14 16 24 32 23 36 -1 4 5 11 14 16 9 5 13 14 10 20 -5 7 -2 8 5 4 8 -5 14 -1
18 12 3 11 11 23 19 26 8 3 14 12 14 21 0 8 4 15 9 15 5 0 14 14 21 30 7 17
16 30 20 30 5 0 15 14 24 30 9 20 10 28 3 24 -7 -3 -5 0 4 8 21 17 57 74 42
65 -9 -6 -11 -3 -7 7 3 9 10 14 14 11 10 -6 25 33 21 53 -1 7 5 15 13 18 9 3
13 10 10 15 -3 5 -1 9 4 9 6 0 13 7 16 16 4 9 2 13 -5 8 -7 -4 -10 -1 -7 7 3
8 11 13 18 11 8 -2 10 3 7 13 -4 8 -2 15 4 15 6 0 7 5 4 10 -3 6 -2 10 4 10 6
0 8 7 5 15 -4 8 -1 15 5 15 6 0 8 7 4 17 -4 11 -3 14 5 9 8 -5 10 -2 6 8 -3 9
-1 16 6 16 6 0 8 4 5 10 -3 5 0 20 6 32 7 13 14 43 16 68 2 25 9 50 16 55 7 6
13 21 14 35 6 65 16 100 27 93 7 -5 7 -2 -1 8 -7 8 -9 25 -6 38 3 12 9 18 12
13 3 -6 6 28 6 74 0 46 3 84 8 84 4 0 8 37 8 83 1 62 3 74 9 47 5 -25 8 -8 9
61 0 53 -2 99 -6 103 -4 4 -8 30 -9 59 -2 29 -5 75 -7 102 -5 54 -60 287 -79
333 -6 15 -13 34 -14 42 -9 39 -75 186 -128 285 -70 131 -132 227 -179 277
l-35 36 -64 -23z m269 -1667 c-3 -7 -5 -2 -5 12 0 14 2 19 5 13 2 -7 2 -19 0
-25z"/>
<path d="M2128 4229 c-57 -21 -72 -116 -25 -166 l20 -23 583 0 583 0 20 26
c45 57 31 143 -25 164 -34 13 -1120 12 -1156 -1z"/>
<path d="M5117 4220 c-47 -37 -40 -141 11 -169 13 -7 105 -11 249 -11 l229 0
31 -32 c68 -72 204 -301 233 -393 7 -22 20 -58 30 -80 71 -166 101 -514 64
-748 -9 -56 -17 -109 -18 -117 -1 -9 -4 -20 -8 -25 -3 -6 -8 -23 -12 -40 -11
-47 -74 -203 -113 -280 -90 -180 -148 -257 -248 -331 -100 -73 -107 -98 -47
-157 52 -51 89 -56 149 -22 45 26 133 109 133 126 0 11 46 56 71 70 11 6 18
13 16 16 -3 3 8 19 24 36 53 56 59 63 59 75 0 6 7 15 16 20 9 5 15 12 15 15
-3 20 0 30 6 24 7 -7 44 48 47 71 2 7 7 17 13 20 14 9 55 92 46 92 -5 0 -2 4
5 9 7 4 14 18 15 29 1 12 6 22 11 22 5 0 7 3 3 6 -3 4 1 13 9 21 8 9 12 23 9
31 -3 8 0 19 6 23 6 4 12 18 12 33 0 14 3 26 8 26 5 0 6 7 3 15 -4 8 -1 15 5
15 6 0 8 7 5 15 -4 8 -2 15 4 15 6 0 8 10 4 22 -3 15 -2 19 7 14 8 -6 10 -1 5
18 -3 15 -2 26 4 26 5 0 10 6 9 13 0 6 1 30 2 52 1 31 4 37 12 25 8 -11 9 -7
4 18 -4 20 -3 32 4 32 7 0 9 10 5 25 -3 14 -3 33 1 42 8 17 17 151 15 223 -1
97 -9 204 -16 228 -8 32 -11 43 -19 100 -3 23 -9 42 -13 42 -4 0 -8 15 -9 32
-2 18 -7 34 -12 36 -6 2 -8 9 -5 16 17 46 -176 463 -261 565 -14 16 -25 33
-25 38 0 28 -58 33 -414 33 -347 0 -364 -1 -389 -20z"/>
<path d="M1924 3918 c-125 -248 -194 -541 -200 -843 -3 -151 0 -183 22 -290
89 -418 314 -781 612 -983 67 -46 224 -127 265 -137 15 -4 30 -11 33 -16 3 -5
15 -9 26 -9 67 0 136 -112 147 -241 6 -74 10 -84 35 -104 16 -13 42 -26 59
-29 43 -9 2040 -7 2052 2 40 29 43 122 5 142 -12 7 -196 12 -497 14 -263 2
-491 7 -508 10 -184 40 -296 100 -473 252 -126 109 -274 267 -337 360 -207
308 -336 696 -339 1023 -2 233 26 387 95 524 47 93 49 118 12 147 -66 52 -156
-4 -188 -117 -22 -78 -44 -106 -84 -106 -43 0 -68 26 -110 118 -24 51 -51 92
-76 114 -35 30 -43 33 -86 29 -75 -8 -109 -58 -128 -188 -6 -41 -20 -138 -31
-215 -42 -281 -20 -570 64 -820 64 -191 157 -325 225 -325 24 0 42 9 67 34 19
19 36 30 39 25 3 -5 36 -25 73 -46 106 -58 179 -110 208 -148 34 -46 59 -158
44 -196 -39 -92 -110 -92 -292 -1 -68 34 -136 72 -152 85 -104 81 -166 134
-199 170 -127 139 -207 303 -267 544 -9 35 -23 52 -83 100 -111 90 -124 124
-134 338 -9 200 56 490 159 704 38 81 48 111 44 134 -6 32 -23 57 -37 57 -5 0
-34 -51 -65 -112z"/>
<path d="M6900 3970 c-19 -4 -45 -13 -57 -20 -48 -31 -58 -110 -19 -155 14
-16 22 -33 19 -38 -3 -6 -1 -7 5 -3 7 4 12 2 12 -4 0 -6 4 -9 9 -5 5 3 12 1
16 -5 4 -6 10 -8 15 -5 5 3 11 1 15 -4 8 -13 36 -2 59 23 10 12 22 20 27 19 4
-2 5 5 2 14 -4 10 -2 14 4 10 6 -4 8 3 5 20 -3 18 -1 24 7 19 7 -5 11 1 11 14
0 13 -4 19 -11 14 -8 -4 -9 1 -4 15 5 16 -1 32 -19 55 -29 38 -46 45 -96 36z"/>
<path d="M2041 3633 c-46 -18 -82 -108 -67 -168 9 -37 79 -105 107 -105 26 1
99 57 102 80 2 8 5 20 9 25 14 24 18 74 8 101 -21 53 -49 74 -99 73 -25 0 -52
-3 -60 -6z"/>
<path d="M3886 3526 c-33 -30 -36 -38 -36 -87 0 -35 6 -63 17 -79 21 -30 45
-50 55 -44 4 2 9 0 13 -6 9 -15 57 -12 79 5 10 8 23 12 27 9 8 -5 13 10 7 20
-2 2 5 13 15 24 24 27 29 89 10 127 -24 47 -52 65 -105 65 -39 0 -52 -5 -82
-34z"/>
<path d="M3874 3205 c-18 -20 -50 -66 -70 -103 -51 -93 -77 -131 -94 -138 -8
-3 -95 -5 -193 -4 -155 1 -182 -1 -205 -16 -45 -30 -54 -43 -60 -89 -4 -41 -1
-48 31 -80 l35 -35 106 5 c73 4 112 2 128 -6 13 -7 78 -68 146 -135 144 -143
143 -123 18 -251 -124 -127 -138 -165 -83 -227 24 -29 41 -38 70 -41 20 -2 37
0 37 5 0 5 8 11 18 14 17 6 149 133 176 170 15 21 9 25 156 -110 63 -59 89
-74 124 -74 56 0 99 76 82 144 -3 14 -42 70 -86 124 -44 55 -80 103 -80 107 0
4 30 39 68 78 37 39 95 100 130 136 l63 66 119 0 c117 0 119 1 149 29 51 49
50 107 -3 164 -21 23 -22 24 -229 21 l-208 -3 -24 26 c-14 15 -45 67 -70 116
-66 129 -80 142 -156 142 -58 0 -64 -2 -95 -35z m112 -297 c23 -71 50 -108 85
-115 56 -11 53 -25 -25 -101 -40 -40 -79 -72 -87 -72 -20 1 -159 133 -159 152
0 10 13 17 41 21 23 3 49 12 57 21 16 16 42 81 42 107 0 12 18 39 26 39 1 0
10 -24 20 -52z"/>
<path d="M600 3132 c-55 -26 -80 -62 -80 -117 0 -51 23 -89 66 -110 61 -29
118 -6 153 62 18 36 7 112 -22 140 -25 25 -89 39 -117 25z"/>
<path d="M1964 3125 c-32 -22 -47 -69 -42 -126 9 -87 64 -132 135 -108 43 14
83 63 83 101 0 48 -21 107 -41 113 -9 3 -20 12 -23 20 -7 20 -85 20 -112 0z"/>
<path d="M6661 2904 c0 -11 3 -14 6 -6 3 7 2 16 -1 19 -3 4 -6 -2 -5 -13z"/>
<path d="M4852 633 c-7 -3 -22 -23 -33 -46 -37 -72 -7 -169 61 -197 97 -40
205 83 156 177 -26 52 -62 73 -120 72 -28 0 -57 -3 -64 -6z"/>
<path d="M3936 468 c-9 -5 -16 -6 -16 -3 0 3 -13 -1 -30 -10 -51 -26 -53 -112
-4 -162 53 -53 134 0 134 87 0 69 -41 112 -84 88z"/>
<path d="M4224 470 c-82 -33 -64 -180 21 -180 18 0 40 3 49 6 20 8 38 75 30
111 -16 65 -47 85 -100 63z"/>
<path d="M5803 431 c-68 -8 -98 -36 -97 -89 2 -46 28 -90 61 -103 14 -5 121
-9 239 -9 238 0 254 4 273 63 23 68 -15 132 -81 139 -65 7 -336 6 -395 -1z"/>
</g>
</svg>
